<mxfile host="Electron" modified="2024-05-21T00:03:27.521Z" agent="Mozilla/5.0 (Windows NT 10.0; Win64; x64) AppleWebKit/537.36 (KHTML, like Gecko) draw.io/24.0.4 Chrome/120.0.6099.109 Electron/28.1.0 Safari/537.36" etag="fkGcpG8HS7cFwJCBcUT3" version="24.0.4" type="device">
  <diagram name="Страница — 1" id="eZlK9nkfzRwdJEloKBNb">
    <mxGraphModel dx="695" dy="817" grid="1" gridSize="10" guides="1" tooltips="1" connect="1" arrows="1" fold="1" page="1" pageScale="1" pageWidth="827" pageHeight="1169" math="0" shadow="0">
      <root>
        <mxCell id="0" />
        <mxCell id="1" parent="0" />
        <mxCell id="gsL3K-DyMeMPpn5qfdVY-14" value="" style="group" vertex="1" connectable="0" parent="1">
          <mxGeometry x="170" y="150" width="270" height="300" as="geometry" />
        </mxCell>
        <mxCell id="gsL3K-DyMeMPpn5qfdVY-1" value="Н_ОЦЕНКИ" style="text;html=1;align=center;verticalAlign=middle;whiteSpace=wrap;rounded=0;" vertex="1" parent="gsL3K-DyMeMPpn5qfdVY-14">
          <mxGeometry x="40" y="270" width="60" height="30" as="geometry" />
        </mxCell>
        <mxCell id="gsL3K-DyMeMPpn5qfdVY-2" value="Н_ВЕДОМОСТИ" style="text;html=1;align=center;verticalAlign=middle;whiteSpace=wrap;rounded=0;" vertex="1" parent="gsL3K-DyMeMPpn5qfdVY-14">
          <mxGeometry x="170" y="270" width="60" height="30" as="geometry" />
        </mxCell>
        <mxCell id="gsL3K-DyMeMPpn5qfdVY-3" value="&lt;font style=&quot;font-size: 24px;&quot;&gt;⋈&lt;/font&gt;&lt;font style=&quot;font-size: 10px;&quot;&gt;&amp;nbsp;Н_ВЕДОМОСТИ.ОЦЕНКА = ОЦЕНКА.КОД&lt;/font&gt;" style="text;html=1;align=center;verticalAlign=middle;whiteSpace=wrap;rounded=0;" vertex="1" parent="gsL3K-DyMeMPpn5qfdVY-14">
          <mxGeometry x="10" y="210" width="250" height="30" as="geometry" />
        </mxCell>
        <mxCell id="gsL3K-DyMeMPpn5qfdVY-4" value="" style="endArrow=none;html=1;rounded=0;entryX=0.25;entryY=1;entryDx=0;entryDy=0;exitX=0.5;exitY=0;exitDx=0;exitDy=0;" edge="1" parent="gsL3K-DyMeMPpn5qfdVY-14" source="gsL3K-DyMeMPpn5qfdVY-1" target="gsL3K-DyMeMPpn5qfdVY-3">
          <mxGeometry width="50" height="50" relative="1" as="geometry">
            <mxPoint x="200" y="240" as="sourcePoint" />
            <mxPoint x="250" y="190" as="targetPoint" />
          </mxGeometry>
        </mxCell>
        <mxCell id="gsL3K-DyMeMPpn5qfdVY-5" value="" style="endArrow=none;html=1;rounded=0;entryX=0.75;entryY=1;entryDx=0;entryDy=0;exitX=0.5;exitY=0;exitDx=0;exitDy=0;" edge="1" parent="gsL3K-DyMeMPpn5qfdVY-14" source="gsL3K-DyMeMPpn5qfdVY-2" target="gsL3K-DyMeMPpn5qfdVY-3">
          <mxGeometry width="50" height="50" relative="1" as="geometry">
            <mxPoint x="80" y="280" as="sourcePoint" />
            <mxPoint x="83" y="250" as="targetPoint" />
          </mxGeometry>
        </mxCell>
        <mxCell id="gsL3K-DyMeMPpn5qfdVY-6" value="&lt;font style=&quot;font-size: 24px;&quot;&gt;σ &lt;/font&gt;&lt;font style=&quot;font-size: 10px;&quot;&gt;Н_ОЦЕНКИ.ПРИМЕЧАНИЕ &amp;lt; &quot;ХОРОШО&quot;&lt;br&gt;&lt;/font&gt;" style="text;html=1;align=center;verticalAlign=middle;whiteSpace=wrap;rounded=0;" vertex="1" parent="gsL3K-DyMeMPpn5qfdVY-14">
          <mxGeometry x="14.5" y="160" width="241" height="30" as="geometry" />
        </mxCell>
        <mxCell id="gsL3K-DyMeMPpn5qfdVY-7" value="" style="endArrow=none;html=1;rounded=0;entryX=0.5;entryY=1;entryDx=0;entryDy=0;exitX=0.5;exitY=0;exitDx=0;exitDy=0;" edge="1" parent="gsL3K-DyMeMPpn5qfdVY-14" source="gsL3K-DyMeMPpn5qfdVY-3" target="gsL3K-DyMeMPpn5qfdVY-6">
          <mxGeometry width="50" height="50" relative="1" as="geometry">
            <mxPoint x="200" y="240" as="sourcePoint" />
            <mxPoint x="250" y="190" as="targetPoint" />
          </mxGeometry>
        </mxCell>
        <mxCell id="gsL3K-DyMeMPpn5qfdVY-8" value="&lt;font style=&quot;font-size: 24px;&quot;&gt;σ &lt;/font&gt;&lt;font style=&quot;font-size: 10px;&quot;&gt;Н_ВЕДОМОСТИ.ДАТА &amp;lt; 1998-01-05&lt;/font&gt;&lt;font style=&quot;font-size: 10px;&quot;&gt;&lt;br&gt;&lt;/font&gt;" style="text;html=1;align=center;verticalAlign=middle;whiteSpace=wrap;rounded=0;" vertex="1" parent="gsL3K-DyMeMPpn5qfdVY-14">
          <mxGeometry x="14.5" y="109" width="241" height="30" as="geometry" />
        </mxCell>
        <mxCell id="gsL3K-DyMeMPpn5qfdVY-9" value="" style="endArrow=none;html=1;rounded=0;entryX=0.5;entryY=1;entryDx=0;entryDy=0;exitX=0.5;exitY=0;exitDx=0;exitDy=0;" edge="1" parent="gsL3K-DyMeMPpn5qfdVY-14" source="gsL3K-DyMeMPpn5qfdVY-6" target="gsL3K-DyMeMPpn5qfdVY-8">
          <mxGeometry width="50" height="50" relative="1" as="geometry">
            <mxPoint x="110" y="250" as="sourcePoint" />
            <mxPoint x="160" y="200" as="targetPoint" />
          </mxGeometry>
        </mxCell>
        <mxCell id="gsL3K-DyMeMPpn5qfdVY-10" value="&lt;font style=&quot;font-size: 24px;&quot;&gt;σ &lt;/font&gt;&lt;font style=&quot;font-size: 10px;&quot;&gt;Н_ВЕДОМОСТИ.ДАТА = 2022-06-08&lt;/font&gt;&lt;font style=&quot;font-size: 10px;&quot;&gt;&lt;br&gt;&lt;/font&gt;" style="text;html=1;align=center;verticalAlign=middle;whiteSpace=wrap;rounded=0;" vertex="1" parent="gsL3K-DyMeMPpn5qfdVY-14">
          <mxGeometry x="14.5" y="60" width="241" height="30" as="geometry" />
        </mxCell>
        <mxCell id="gsL3K-DyMeMPpn5qfdVY-11" value="" style="endArrow=none;html=1;rounded=0;entryX=0.5;entryY=1;entryDx=0;entryDy=0;exitX=0.5;exitY=0;exitDx=0;exitDy=0;" edge="1" parent="gsL3K-DyMeMPpn5qfdVY-14" source="gsL3K-DyMeMPpn5qfdVY-8" target="gsL3K-DyMeMPpn5qfdVY-10">
          <mxGeometry width="50" height="50" relative="1" as="geometry">
            <mxPoint x="110" y="200" as="sourcePoint" />
            <mxPoint x="160" y="150" as="targetPoint" />
          </mxGeometry>
        </mxCell>
        <mxCell id="gsL3K-DyMeMPpn5qfdVY-12" value="&lt;font style=&quot;font-size: 24px;&quot;&gt;π &lt;/font&gt;&lt;font style=&quot;font-size: 10px;&quot;&gt;Н_ОЦЕНКИ.ПРИМЕЧАНИЕ, Н_ВЕДОМОСТИ.ДАТА&lt;/font&gt;" style="text;html=1;align=center;verticalAlign=middle;whiteSpace=wrap;rounded=0;" vertex="1" parent="gsL3K-DyMeMPpn5qfdVY-14">
          <mxGeometry width="270" height="30" as="geometry" />
        </mxCell>
        <mxCell id="gsL3K-DyMeMPpn5qfdVY-13" value="" style="endArrow=none;html=1;rounded=0;entryX=0.5;entryY=1;entryDx=0;entryDy=0;exitX=0.5;exitY=0;exitDx=0;exitDy=0;" edge="1" parent="gsL3K-DyMeMPpn5qfdVY-14" source="gsL3K-DyMeMPpn5qfdVY-10" target="gsL3K-DyMeMPpn5qfdVY-12">
          <mxGeometry width="50" height="50" relative="1" as="geometry">
            <mxPoint x="120" y="130" as="sourcePoint" />
            <mxPoint x="170" y="80" as="targetPoint" />
          </mxGeometry>
        </mxCell>
        <mxCell id="gsL3K-DyMeMPpn5qfdVY-68" value="" style="group" vertex="1" connectable="0" parent="1">
          <mxGeometry x="568.5" y="150" width="482.5" height="290" as="geometry" />
        </mxCell>
        <mxCell id="gsL3K-DyMeMPpn5qfdVY-39" value="&lt;font style=&quot;font-size: 24px;&quot;&gt;σ &lt;/font&gt;&lt;font style=&quot;font-size: 10px;&quot;&gt;Н_ВЕДОМОСТИ.ДАТА = 2022-06-08&lt;/font&gt;&lt;font style=&quot;font-size: 10px;&quot;&gt;&lt;br&gt;&lt;/font&gt;" style="text;html=1;align=center;verticalAlign=middle;whiteSpace=wrap;rounded=0;" vertex="1" parent="gsL3K-DyMeMPpn5qfdVY-68">
          <mxGeometry x="241.5" y="135" width="241" height="30" as="geometry" />
        </mxCell>
        <mxCell id="gsL3K-DyMeMPpn5qfdVY-37" value="&lt;font style=&quot;font-size: 24px;&quot;&gt;σ &lt;/font&gt;&lt;font style=&quot;font-size: 10px;&quot;&gt;Н_ВЕДОМОСТИ.ДАТА &amp;lt; 1998-01-05&lt;/font&gt;&lt;font style=&quot;font-size: 10px;&quot;&gt;&lt;br&gt;&lt;/font&gt;" style="text;html=1;align=center;verticalAlign=middle;whiteSpace=wrap;rounded=0;" vertex="1" parent="gsL3K-DyMeMPpn5qfdVY-68">
          <mxGeometry x="241" y="200" width="241" height="30" as="geometry" />
        </mxCell>
        <mxCell id="gsL3K-DyMeMPpn5qfdVY-41" value="&lt;font style=&quot;font-size: 24px;&quot;&gt;π &lt;/font&gt;&lt;font style=&quot;font-size: 10px;&quot;&gt;Н_ОЦЕНКИ.ПРИМЕЧАНИЕ, Н_ВЕДОМОСТИ.ДАТА&lt;/font&gt;" style="text;html=1;align=center;verticalAlign=middle;whiteSpace=wrap;rounded=0;" vertex="1" parent="gsL3K-DyMeMPpn5qfdVY-68">
          <mxGeometry x="121.5" width="270" height="30" as="geometry" />
        </mxCell>
        <mxCell id="gsL3K-DyMeMPpn5qfdVY-32" value="&lt;font style=&quot;font-size: 24px;&quot;&gt;⋈&lt;/font&gt;&lt;font style=&quot;font-size: 10px;&quot;&gt;&amp;nbsp;Н_ВЕДОМОСТИ.ОЦЕНКА = ОЦЕНКА.КОД&lt;/font&gt;" style="text;html=1;align=center;verticalAlign=middle;whiteSpace=wrap;rounded=0;" vertex="1" parent="gsL3K-DyMeMPpn5qfdVY-68">
          <mxGeometry x="131.5" y="70" width="250" height="30" as="geometry" />
        </mxCell>
        <mxCell id="gsL3K-DyMeMPpn5qfdVY-31" value="Н_ВЕДОМОСТИ" style="text;html=1;align=center;verticalAlign=middle;whiteSpace=wrap;rounded=0;" vertex="1" parent="gsL3K-DyMeMPpn5qfdVY-68">
          <mxGeometry x="331.5" y="260" width="60" height="30" as="geometry" />
        </mxCell>
        <mxCell id="gsL3K-DyMeMPpn5qfdVY-35" value="&lt;font style=&quot;font-size: 24px;&quot;&gt;σ &lt;/font&gt;&lt;font style=&quot;font-size: 10px;&quot;&gt;Н_ОЦЕНКИ.ПРИМЕЧАНИЕ &amp;lt; &quot;ХОРОШО&quot;&lt;br&gt;&lt;/font&gt;" style="text;html=1;align=center;verticalAlign=middle;whiteSpace=wrap;rounded=0;" vertex="1" parent="gsL3K-DyMeMPpn5qfdVY-68">
          <mxGeometry y="135" width="241" height="30" as="geometry" />
        </mxCell>
        <mxCell id="gsL3K-DyMeMPpn5qfdVY-30" value="Н_ОЦЕНКИ" style="text;html=1;align=center;verticalAlign=middle;whiteSpace=wrap;rounded=0;" vertex="1" parent="gsL3K-DyMeMPpn5qfdVY-68">
          <mxGeometry x="90.5" y="200" width="60" height="30" as="geometry" />
        </mxCell>
        <mxCell id="gsL3K-DyMeMPpn5qfdVY-46" value="" style="endArrow=none;html=1;rounded=0;entryX=0.5;entryY=1;entryDx=0;entryDy=0;exitX=0.5;exitY=0;exitDx=0;exitDy=0;" edge="1" parent="gsL3K-DyMeMPpn5qfdVY-68" source="gsL3K-DyMeMPpn5qfdVY-32" target="gsL3K-DyMeMPpn5qfdVY-41">
          <mxGeometry width="50" height="50" relative="1" as="geometry">
            <mxPoint x="171.5" y="220" as="sourcePoint" />
            <mxPoint x="221.5" y="170" as="targetPoint" />
          </mxGeometry>
        </mxCell>
        <mxCell id="gsL3K-DyMeMPpn5qfdVY-47" value="" style="endArrow=none;html=1;rounded=0;entryX=0.5;entryY=0;entryDx=0;entryDy=0;exitX=0.25;exitY=1;exitDx=0;exitDy=0;" edge="1" parent="gsL3K-DyMeMPpn5qfdVY-68" source="gsL3K-DyMeMPpn5qfdVY-32" target="gsL3K-DyMeMPpn5qfdVY-35">
          <mxGeometry width="50" height="50" relative="1" as="geometry">
            <mxPoint x="266.5" y="80" as="sourcePoint" />
            <mxPoint x="266.5" y="40" as="targetPoint" />
          </mxGeometry>
        </mxCell>
        <mxCell id="gsL3K-DyMeMPpn5qfdVY-48" value="" style="endArrow=none;html=1;rounded=0;entryX=0.5;entryY=0;entryDx=0;entryDy=0;exitX=0.75;exitY=1;exitDx=0;exitDy=0;" edge="1" parent="gsL3K-DyMeMPpn5qfdVY-68" source="gsL3K-DyMeMPpn5qfdVY-32" target="gsL3K-DyMeMPpn5qfdVY-39">
          <mxGeometry width="50" height="50" relative="1" as="geometry">
            <mxPoint x="203.5" y="110" as="sourcePoint" />
            <mxPoint x="130.5" y="145" as="targetPoint" />
          </mxGeometry>
        </mxCell>
        <mxCell id="gsL3K-DyMeMPpn5qfdVY-49" value="" style="endArrow=none;html=1;rounded=0;entryX=0.5;entryY=0;entryDx=0;entryDy=0;exitX=0.5;exitY=1;exitDx=0;exitDy=0;" edge="1" parent="gsL3K-DyMeMPpn5qfdVY-68" source="gsL3K-DyMeMPpn5qfdVY-35" target="gsL3K-DyMeMPpn5qfdVY-30">
          <mxGeometry width="50" height="50" relative="1" as="geometry">
            <mxPoint x="131.5" y="250" as="sourcePoint" />
            <mxPoint x="174.5" y="285" as="targetPoint" />
          </mxGeometry>
        </mxCell>
        <mxCell id="gsL3K-DyMeMPpn5qfdVY-50" value="" style="endArrow=none;html=1;rounded=0;entryX=0.5;entryY=0;entryDx=0;entryDy=0;exitX=0.5;exitY=1;exitDx=0;exitDy=0;" edge="1" parent="gsL3K-DyMeMPpn5qfdVY-68" source="gsL3K-DyMeMPpn5qfdVY-39" target="gsL3K-DyMeMPpn5qfdVY-37">
          <mxGeometry width="50" height="50" relative="1" as="geometry">
            <mxPoint x="130.5" y="175" as="sourcePoint" />
            <mxPoint x="130.5" y="210" as="targetPoint" />
          </mxGeometry>
        </mxCell>
        <mxCell id="gsL3K-DyMeMPpn5qfdVY-51" value="" style="endArrow=none;html=1;rounded=0;entryX=0.5;entryY=1;entryDx=0;entryDy=0;exitX=0.5;exitY=0;exitDx=0;exitDy=0;" edge="1" parent="gsL3K-DyMeMPpn5qfdVY-68" source="gsL3K-DyMeMPpn5qfdVY-31" target="gsL3K-DyMeMPpn5qfdVY-37">
          <mxGeometry width="50" height="50" relative="1" as="geometry">
            <mxPoint x="371.5" y="175" as="sourcePoint" />
            <mxPoint x="371.5" y="210" as="targetPoint" />
          </mxGeometry>
        </mxCell>
        <mxCell id="gsL3K-DyMeMPpn5qfdVY-69" value="" style="group" vertex="1" connectable="0" parent="1">
          <mxGeometry x="65" y="550" width="405" height="360" as="geometry" />
        </mxCell>
        <mxCell id="gsL3K-DyMeMPpn5qfdVY-52" value="&lt;font style=&quot;font-size: 24px;&quot;&gt;⋈&lt;/font&gt;&lt;font style=&quot;font-size: 10px;&quot;&gt;&amp;nbsp;Н_ЛЮДИ.ИД = Н_ВЕДОМОСТИ.ЧЛВК_ИД&lt;/font&gt;" style="text;html=1;align=center;verticalAlign=middle;whiteSpace=wrap;rounded=0;" vertex="1" parent="gsL3K-DyMeMPpn5qfdVY-69">
          <mxGeometry x="155" y="250" width="250" height="30" as="geometry" />
        </mxCell>
        <mxCell id="gsL3K-DyMeMPpn5qfdVY-53" value="&lt;font style=&quot;font-size: 24px;&quot;&gt;σ &lt;/font&gt;&lt;font style=&quot;font-size: 10px;&quot;&gt;Н_ВЕДОМОСТИ.ДАТА &amp;gt; 1998-01-05&lt;/font&gt;&lt;font style=&quot;font-size: 10px;&quot;&gt;&lt;br&gt;&lt;/font&gt;" style="text;html=1;align=center;verticalAlign=middle;whiteSpace=wrap;rounded=0;" vertex="1" parent="gsL3K-DyMeMPpn5qfdVY-69">
          <mxGeometry x="59.5" y="120" width="241" height="30" as="geometry" />
        </mxCell>
        <mxCell id="gsL3K-DyMeMPpn5qfdVY-54" value="&lt;font style=&quot;font-size: 24px;&quot;&gt;π &lt;/font&gt;&lt;font style=&quot;font-size: 10px;&quot;&gt;Н_ЛЮДИ.ФАМИЛИЯ, Н_ВЕДОМОСТИ.ЧЛВК_ИД, Н_СЕССИЯ.ДАТА&lt;/font&gt;" style="text;html=1;align=center;verticalAlign=middle;whiteSpace=wrap;rounded=0;" vertex="1" parent="gsL3K-DyMeMPpn5qfdVY-69">
          <mxGeometry width="360" height="30" as="geometry" />
        </mxCell>
        <mxCell id="gsL3K-DyMeMPpn5qfdVY-55" value="Н_ЛЮДИ" style="text;html=1;align=center;verticalAlign=middle;whiteSpace=wrap;rounded=0;" vertex="1" parent="gsL3K-DyMeMPpn5qfdVY-69">
          <mxGeometry x="335" y="330" width="60" height="30" as="geometry" />
        </mxCell>
        <mxCell id="gsL3K-DyMeMPpn5qfdVY-56" value="Н_ВЕДОМОСТИ&lt;span style=&quot;color: rgba(0, 0, 0, 0); font-family: monospace; font-size: 0px; text-align: start; text-wrap: nowrap;&quot;&gt;%3CmxGraphModel%3E%3Croot%3E%3CmxCell%20id%3D%220%22%2F%3E%3CmxCell%20id%3D%221%22%20parent%3D%220%22%2F%3E%3CmxCell%20id%3D%222%22%20value%3D%22%D0%9D_%D0%9B%D0%AE%D0%94%D0%98%22%20style%3D%22text%3Bhtml%3D1%3Balign%3Dcenter%3BverticalAlign%3Dmiddle%3BwhiteSpace%3Dwrap%3Brounded%3D0%3B%22%20vertex%3D%221%22%20parent%3D%221%22%3E%3CmxGeometry%20x%3D%22220%22%20y%3D%22780%22%20width%3D%2260%22%20height%3D%2230%22%20as%3D%22geometry%22%2F%3E%3C%2FmxCell%3E%3C%2Froot%3E%3C%2FmxGraphModel%3E&lt;/span&gt;&lt;span style=&quot;color: rgba(0, 0, 0, 0); font-family: monospace; font-size: 0px; text-align: start; text-wrap: nowrap;&quot;&gt;%3CmxGraphModel%3E%3Croot%3E%3CmxCell%20id%3D%220%22%2F%3E%3CmxCell%20id%3D%221%22%20parent%3D%220%22%2F%3E%3CmxCell%20id%3D%222%22%20value%3D%22%D0%9D_%D0%9B%D0%AE%D0%94%D0%98%22%20style%3D%22text%3Bhtml%3D1%3Balign%3Dcenter%3BverticalAlign%3Dmiddle%3BwhiteSpace%3Dwrap%3Brounded%3D0%3B%22%20vertex%3D%221%22%20parent%3D%221%22%3E%3CmxGeometry%20x%3D%22220%22%20y%3D%22780%22%20width%3D%2260%22%20height%3D%2230%22%20as%3D%22geometry%22%2F%3E%3C%2FmxCell%3E%3C%2Froot%3E%3C%2FmxGraphModel%3E&lt;/span&gt;" style="text;html=1;align=center;verticalAlign=middle;whiteSpace=wrap;rounded=0;" vertex="1" parent="gsL3K-DyMeMPpn5qfdVY-69">
          <mxGeometry x="165" y="330" width="60" height="30" as="geometry" />
        </mxCell>
        <mxCell id="gsL3K-DyMeMPpn5qfdVY-57" value="Н_СЕССИЯ" style="text;html=1;align=center;verticalAlign=middle;whiteSpace=wrap;rounded=0;" vertex="1" parent="gsL3K-DyMeMPpn5qfdVY-69">
          <mxGeometry x="55" y="250" width="60" height="30" as="geometry" />
        </mxCell>
        <mxCell id="gsL3K-DyMeMPpn5qfdVY-58" value="" style="endArrow=none;html=1;rounded=0;entryX=0.25;entryY=1;entryDx=0;entryDy=0;exitX=0.5;exitY=0;exitDx=0;exitDy=0;" edge="1" parent="gsL3K-DyMeMPpn5qfdVY-69" source="gsL3K-DyMeMPpn5qfdVY-56" target="gsL3K-DyMeMPpn5qfdVY-52">
          <mxGeometry width="50" height="50" relative="1" as="geometry">
            <mxPoint x="245" y="190" as="sourcePoint" />
            <mxPoint x="295" y="140" as="targetPoint" />
          </mxGeometry>
        </mxCell>
        <mxCell id="gsL3K-DyMeMPpn5qfdVY-59" value="" style="endArrow=none;html=1;rounded=0;entryX=0.75;entryY=1;entryDx=0;entryDy=0;exitX=0.5;exitY=0;exitDx=0;exitDy=0;" edge="1" parent="gsL3K-DyMeMPpn5qfdVY-69" source="gsL3K-DyMeMPpn5qfdVY-55" target="gsL3K-DyMeMPpn5qfdVY-52">
          <mxGeometry width="50" height="50" relative="1" as="geometry">
            <mxPoint x="205" y="340" as="sourcePoint" />
            <mxPoint x="228" y="290" as="targetPoint" />
          </mxGeometry>
        </mxCell>
        <mxCell id="gsL3K-DyMeMPpn5qfdVY-60" value="&lt;font style=&quot;font-size: 24px;&quot;&gt;⋈&lt;/font&gt;&lt;font style=&quot;font-size: 10px;&quot;&gt;&amp;nbsp;Н_ЛЮДИ.ИД = Н_СЕСИЯ.ЧЛВК_ИД&lt;/font&gt;" style="text;html=1;align=center;verticalAlign=middle;whiteSpace=wrap;rounded=0;" vertex="1" parent="gsL3K-DyMeMPpn5qfdVY-69">
          <mxGeometry x="55" y="180" width="250" height="30" as="geometry" />
        </mxCell>
        <mxCell id="gsL3K-DyMeMPpn5qfdVY-61" value="" style="endArrow=none;html=1;rounded=0;fontFamily=Helvetica;fontSize=12;fontColor=default;entryX=0.5;entryY=0;entryDx=0;entryDy=0;exitX=0.75;exitY=1;exitDx=0;exitDy=0;" edge="1" parent="gsL3K-DyMeMPpn5qfdVY-69" source="gsL3K-DyMeMPpn5qfdVY-60" target="gsL3K-DyMeMPpn5qfdVY-52">
          <mxGeometry width="50" height="50" relative="1" as="geometry">
            <mxPoint x="165" y="190" as="sourcePoint" />
            <mxPoint x="215" y="140" as="targetPoint" />
          </mxGeometry>
        </mxCell>
        <mxCell id="gsL3K-DyMeMPpn5qfdVY-62" value="" style="endArrow=none;html=1;rounded=0;fontFamily=Helvetica;fontSize=12;fontColor=default;entryX=0.5;entryY=0;entryDx=0;entryDy=0;exitX=0.25;exitY=1;exitDx=0;exitDy=0;" edge="1" parent="gsL3K-DyMeMPpn5qfdVY-69" source="gsL3K-DyMeMPpn5qfdVY-60" target="gsL3K-DyMeMPpn5qfdVY-57">
          <mxGeometry width="50" height="50" relative="1" as="geometry">
            <mxPoint x="233" y="220" as="sourcePoint" />
            <mxPoint x="290" y="260" as="targetPoint" />
          </mxGeometry>
        </mxCell>
        <mxCell id="gsL3K-DyMeMPpn5qfdVY-63" value="" style="endArrow=none;html=1;rounded=0;fontFamily=Helvetica;fontSize=12;fontColor=default;entryX=0.5;entryY=1;entryDx=0;entryDy=0;exitX=0.5;exitY=0;exitDx=0;exitDy=0;" edge="1" parent="gsL3K-DyMeMPpn5qfdVY-69" source="gsL3K-DyMeMPpn5qfdVY-60" target="gsL3K-DyMeMPpn5qfdVY-53">
          <mxGeometry width="50" height="50" relative="1" as="geometry">
            <mxPoint x="195" y="190" as="sourcePoint" />
            <mxPoint x="245" y="140" as="targetPoint" />
          </mxGeometry>
        </mxCell>
        <mxCell id="gsL3K-DyMeMPpn5qfdVY-64" value="&lt;font style=&quot;font-size: 24px;&quot;&gt;σ &lt;/font&gt;&lt;font style=&quot;font-size: 10px;&quot;&gt;Н_ЛЮДИ.ФАМИЛИЯ &amp;lt; ПЕТРОВ&lt;/font&gt;&lt;font style=&quot;font-size: 10px;&quot;&gt;&lt;br&gt;&lt;/font&gt;" style="text;html=1;align=center;verticalAlign=middle;whiteSpace=wrap;rounded=0;" vertex="1" parent="gsL3K-DyMeMPpn5qfdVY-69">
          <mxGeometry x="59.5" y="60" width="241" height="30" as="geometry" />
        </mxCell>
        <mxCell id="gsL3K-DyMeMPpn5qfdVY-65" value="" style="endArrow=none;html=1;rounded=0;fontFamily=Helvetica;fontSize=12;fontColor=default;entryX=0.5;entryY=1;entryDx=0;entryDy=0;exitX=0.5;exitY=0;exitDx=0;exitDy=0;" edge="1" parent="gsL3K-DyMeMPpn5qfdVY-69" source="gsL3K-DyMeMPpn5qfdVY-53" target="gsL3K-DyMeMPpn5qfdVY-64">
          <mxGeometry width="50" height="50" relative="1" as="geometry">
            <mxPoint x="195" y="190" as="sourcePoint" />
            <mxPoint x="245" y="140" as="targetPoint" />
          </mxGeometry>
        </mxCell>
        <mxCell id="gsL3K-DyMeMPpn5qfdVY-66" value="" style="endArrow=none;html=1;rounded=0;fontFamily=Helvetica;fontSize=12;fontColor=default;entryX=0.5;entryY=1;entryDx=0;entryDy=0;exitX=0.5;exitY=0;exitDx=0;exitDy=0;" edge="1" parent="gsL3K-DyMeMPpn5qfdVY-69" source="gsL3K-DyMeMPpn5qfdVY-64" target="gsL3K-DyMeMPpn5qfdVY-54">
          <mxGeometry width="50" height="50" relative="1" as="geometry">
            <mxPoint x="195" y="190" as="sourcePoint" />
            <mxPoint x="245" y="140" as="targetPoint" />
          </mxGeometry>
        </mxCell>
        <mxCell id="gsL3K-DyMeMPpn5qfdVY-86" value="" style="group" vertex="1" connectable="0" parent="1">
          <mxGeometry x="630" y="550" width="546" height="360" as="geometry" />
        </mxCell>
        <mxCell id="gsL3K-DyMeMPpn5qfdVY-99" value="&lt;font style=&quot;font-size: 24px;&quot;&gt;σ &lt;/font&gt;&lt;font style=&quot;font-size: 10px;&quot;&gt;Н_ЛЮДИ.ФАМИЛИЯ &amp;lt; ПЕТРОВ&lt;/font&gt;&lt;font style=&quot;font-size: 10px;&quot;&gt;&lt;br&gt;&lt;/font&gt;" style="text;html=1;align=center;verticalAlign=middle;whiteSpace=wrap;rounded=0;" vertex="1" parent="gsL3K-DyMeMPpn5qfdVY-86">
          <mxGeometry x="270" y="200" width="241" height="30" as="geometry" />
        </mxCell>
        <mxCell id="gsL3K-DyMeMPpn5qfdVY-108" value="" style="group" vertex="1" connectable="0" parent="gsL3K-DyMeMPpn5qfdVY-86">
          <mxGeometry width="420.5" height="290" as="geometry" />
        </mxCell>
        <mxCell id="gsL3K-DyMeMPpn5qfdVY-87" value="&lt;font style=&quot;font-size: 24px;&quot;&gt;⋈&lt;/font&gt;&lt;font style=&quot;font-size: 10px;&quot;&gt;&amp;nbsp;Н_ЛЮДИ.ИД = Н_ВЕДОМОСТИ.ЧЛВК_ИД&lt;/font&gt;" style="text;html=1;align=center;verticalAlign=middle;whiteSpace=wrap;rounded=0;" vertex="1" parent="gsL3K-DyMeMPpn5qfdVY-108">
          <mxGeometry x="150" y="140" width="250" height="30" as="geometry" />
        </mxCell>
        <mxCell id="gsL3K-DyMeMPpn5qfdVY-88" value="&lt;font style=&quot;font-size: 24px;&quot;&gt;σ &lt;/font&gt;&lt;font style=&quot;font-size: 10px;&quot;&gt;Н_ВЕДОМОСТИ.ДАТА &amp;gt; 1998-01-05&lt;/font&gt;&lt;font style=&quot;font-size: 10px;&quot;&gt;&lt;br&gt;&lt;/font&gt;" style="text;html=1;align=center;verticalAlign=middle;whiteSpace=wrap;rounded=0;" vertex="1" parent="gsL3K-DyMeMPpn5qfdVY-108">
          <mxGeometry x="40" y="200" width="241" height="30" as="geometry" />
        </mxCell>
        <mxCell id="gsL3K-DyMeMPpn5qfdVY-89" value="&lt;font style=&quot;font-size: 24px;&quot;&gt;π &lt;/font&gt;&lt;font style=&quot;font-size: 10px;&quot;&gt;Н_ЛЮДИ.ФАМИЛИЯ, Н_ВЕДОМОСТИ.ЧЛВК_ИД, Н_СЕССИЯ.ДАТА&lt;/font&gt;" style="text;html=1;align=center;verticalAlign=middle;whiteSpace=wrap;rounded=0;" vertex="1" parent="gsL3K-DyMeMPpn5qfdVY-108">
          <mxGeometry width="360" height="30" as="geometry" />
        </mxCell>
        <mxCell id="gsL3K-DyMeMPpn5qfdVY-92" value="Н_СЕССИЯ" style="text;html=1;align=center;verticalAlign=middle;whiteSpace=wrap;rounded=0;" vertex="1" parent="gsL3K-DyMeMPpn5qfdVY-108">
          <mxGeometry x="50" y="140" width="60" height="30" as="geometry" />
        </mxCell>
        <mxCell id="gsL3K-DyMeMPpn5qfdVY-95" value="&lt;font style=&quot;font-size: 24px;&quot;&gt;⋈&lt;/font&gt;&lt;font style=&quot;font-size: 10px;&quot;&gt;&amp;nbsp;Н_ЛЮДИ.ИД = Н_СЕСИЯ.ЧЛВК_ИД&lt;/font&gt;" style="text;html=1;align=center;verticalAlign=middle;whiteSpace=wrap;rounded=0;" vertex="1" parent="gsL3K-DyMeMPpn5qfdVY-108">
          <mxGeometry x="55" y="70" width="250" height="30" as="geometry" />
        </mxCell>
        <mxCell id="gsL3K-DyMeMPpn5qfdVY-96" value="" style="endArrow=none;html=1;rounded=0;fontFamily=Helvetica;fontSize=12;fontColor=default;entryX=0.5;entryY=0;entryDx=0;entryDy=0;exitX=0.75;exitY=1;exitDx=0;exitDy=0;" edge="1" parent="gsL3K-DyMeMPpn5qfdVY-108" source="gsL3K-DyMeMPpn5qfdVY-95" target="gsL3K-DyMeMPpn5qfdVY-87">
          <mxGeometry width="50" height="50" relative="1" as="geometry">
            <mxPoint x="165" y="190" as="sourcePoint" />
            <mxPoint x="215" y="140" as="targetPoint" />
          </mxGeometry>
        </mxCell>
        <mxCell id="gsL3K-DyMeMPpn5qfdVY-97" value="" style="endArrow=none;html=1;rounded=0;fontFamily=Helvetica;fontSize=12;fontColor=default;entryX=0.5;entryY=0;entryDx=0;entryDy=0;exitX=0.25;exitY=1;exitDx=0;exitDy=0;" edge="1" parent="gsL3K-DyMeMPpn5qfdVY-108" source="gsL3K-DyMeMPpn5qfdVY-95" target="gsL3K-DyMeMPpn5qfdVY-92">
          <mxGeometry width="50" height="50" relative="1" as="geometry">
            <mxPoint x="233" y="220" as="sourcePoint" />
            <mxPoint x="290" y="260" as="targetPoint" />
          </mxGeometry>
        </mxCell>
        <mxCell id="gsL3K-DyMeMPpn5qfdVY-91" value="Н_ВЕДОМОСТИ&lt;span style=&quot;color: rgba(0, 0, 0, 0); font-family: monospace; font-size: 0px; text-align: start; text-wrap: nowrap;&quot;&gt;%3CmxGraphModel%3E%3Croot%3E%3CmxCell%20id%3D%220%22%2F%3E%3CmxCell%20id%3D%221%22%20parent%3D%220%22%2F%3E%3CmxCell%20id%3D%222%22%20value%3D%22%D0%9D_%D0%9B%D0%AE%D0%94%D0%98%22%20style%3D%22text%3Bhtml%3D1%3Balign%3Dcenter%3BverticalAlign%3Dmiddle%3BwhiteSpace%3Dwrap%3Brounded%3D0%3B%22%20vertex%3D%221%22%20parent%3D%221%22%3E%3CmxGeometry%20x%3D%22220%22%20y%3D%22780%22%20width%3D%2260%22%20height%3D%2230%22%20as%3D%22geometry%22%2F%3E%3C%2FmxCell%3E%3C%2Froot%3E%3C%2FmxGraphModel%3E&lt;/span&gt;&lt;span style=&quot;color: rgba(0, 0, 0, 0); font-family: monospace; font-size: 0px; text-align: start; text-wrap: nowrap;&quot;&gt;%3CmxGraphModel%3E%3Croot%3E%3CmxCell%20id%3D%220%22%2F%3E%3CmxCell%20id%3D%221%22%20parent%3D%220%22%2F%3E%3CmxCell%20id%3D%222%22%20value%3D%22%D0%9D_%D0%9B%D0%AE%D0%94%D0%98%22%20style%3D%22text%3Bhtml%3D1%3Balign%3Dcenter%3BverticalAlign%3Dmiddle%3BwhiteSpace%3Dwrap%3Brounded%3D0%3B%22%20vertex%3D%221%22%20parent%3D%221%22%3E%3CmxGeometry%20x%3D%22220%22%20y%3D%22780%22%20width%3D%2260%22%20height%3D%2230%22%20as%3D%22geometry%22%2F%3E%3C%2FmxCell%3E%3C%2Froot%3E%3C%2FmxGraphModel%3E&lt;/span&gt;" style="text;html=1;align=center;verticalAlign=middle;whiteSpace=wrap;rounded=0;" vertex="1" parent="gsL3K-DyMeMPpn5qfdVY-108">
          <mxGeometry x="130.5" y="260" width="60" height="30" as="geometry" />
        </mxCell>
        <mxCell id="gsL3K-DyMeMPpn5qfdVY-90" value="Н_ЛЮДИ" style="text;html=1;align=center;verticalAlign=middle;whiteSpace=wrap;rounded=0;" vertex="1" parent="gsL3K-DyMeMPpn5qfdVY-108">
          <mxGeometry x="360.5" y="260" width="60" height="30" as="geometry" />
        </mxCell>
        <mxCell id="gsL3K-DyMeMPpn5qfdVY-103" value="" style="endArrow=none;html=1;rounded=0;fontFamily=Helvetica;fontSize=12;fontColor=default;entryX=0.5;entryY=1;entryDx=0;entryDy=0;exitX=0.5;exitY=0;exitDx=0;exitDy=0;" edge="1" parent="gsL3K-DyMeMPpn5qfdVY-108" source="gsL3K-DyMeMPpn5qfdVY-95" target="gsL3K-DyMeMPpn5qfdVY-89">
          <mxGeometry width="50" height="50" relative="1" as="geometry">
            <mxPoint x="170" y="200" as="sourcePoint" />
            <mxPoint x="220" y="150" as="targetPoint" />
          </mxGeometry>
        </mxCell>
        <mxCell id="gsL3K-DyMeMPpn5qfdVY-104" value="" style="endArrow=none;html=1;rounded=0;fontFamily=Helvetica;fontSize=12;fontColor=default;entryX=0.25;entryY=1;entryDx=0;entryDy=0;exitX=0.5;exitY=0;exitDx=0;exitDy=0;" edge="1" parent="gsL3K-DyMeMPpn5qfdVY-108" source="gsL3K-DyMeMPpn5qfdVY-88" target="gsL3K-DyMeMPpn5qfdVY-87">
          <mxGeometry width="50" height="50" relative="1" as="geometry">
            <mxPoint x="190" y="80" as="sourcePoint" />
            <mxPoint x="190" y="40" as="targetPoint" />
          </mxGeometry>
        </mxCell>
        <mxCell id="gsL3K-DyMeMPpn5qfdVY-105" value="" style="endArrow=none;html=1;rounded=0;fontFamily=Helvetica;fontSize=12;fontColor=default;entryX=0.75;entryY=1;entryDx=0;entryDy=0;exitX=0.5;exitY=0;exitDx=0;exitDy=0;" edge="1" parent="gsL3K-DyMeMPpn5qfdVY-108" source="gsL3K-DyMeMPpn5qfdVY-99" target="gsL3K-DyMeMPpn5qfdVY-87">
          <mxGeometry width="50" height="50" relative="1" as="geometry">
            <mxPoint x="171" y="210" as="sourcePoint" />
            <mxPoint x="223" y="180" as="targetPoint" />
          </mxGeometry>
        </mxCell>
        <mxCell id="gsL3K-DyMeMPpn5qfdVY-106" value="" style="endArrow=none;html=1;rounded=0;fontFamily=Helvetica;fontSize=12;fontColor=default;entryX=0.5;entryY=0;entryDx=0;entryDy=0;exitX=0.5;exitY=1;exitDx=0;exitDy=0;" edge="1" parent="gsL3K-DyMeMPpn5qfdVY-108" source="gsL3K-DyMeMPpn5qfdVY-99" target="gsL3K-DyMeMPpn5qfdVY-90">
          <mxGeometry width="50" height="50" relative="1" as="geometry">
            <mxPoint x="401" y="210" as="sourcePoint" />
            <mxPoint x="348" y="180" as="targetPoint" />
          </mxGeometry>
        </mxCell>
        <mxCell id="gsL3K-DyMeMPpn5qfdVY-107" value="" style="endArrow=none;html=1;rounded=0;fontFamily=Helvetica;fontSize=12;fontColor=default;entryX=0.5;entryY=1;entryDx=0;entryDy=0;exitX=0.5;exitY=0;exitDx=0;exitDy=0;" edge="1" parent="gsL3K-DyMeMPpn5qfdVY-108" source="gsL3K-DyMeMPpn5qfdVY-91" target="gsL3K-DyMeMPpn5qfdVY-88">
          <mxGeometry width="50" height="50" relative="1" as="geometry">
            <mxPoint x="401" y="210" as="sourcePoint" />
            <mxPoint x="348" y="180" as="targetPoint" />
          </mxGeometry>
        </mxCell>
      </root>
    </mxGraphModel>
  </diagram>
</mxfile>
